<?xml version="1.0" encoding="utf-8"?><svg viewBox="0 0 187 40" xmlns="http://www.w3.org/2000/svg" xmlns:xlink="http://www.w3.org/1999/xlink"><style>:root>svg{display:none}:root>svg:target{display:block}</style><svg viewBox="0 0 14 14" id="cross" xmlns="http://www.w3.org/2000/svg"><path d="M1.4 14L0 12.6 5.6 7 0 1.4 1.4 0 7 5.6 12.6 0 14 1.4 8.4 7l5.6 5.6-1.4 1.4L7 8.4 1.4 14z" fill-opacity=".48"/></svg><svg viewBox="0 0 40 40" id="favicon" xmlns="http://www.w3.org/2000/svg"><mask id="ba" maskUnits="userSpaceOnUse" x="0" y="0" width="40" height="40"><path d="M40 0H0v40h40V0z"/></mask><g mask="url(#ba)"><path fill-rule="evenodd" clip-rule="evenodd" d="M1.608 6C0 8.785 0 12.523 0 20s0 11.215 1.608 14A12 12 0 006 38.392C8.785 40 12.523 40 20 40s11.215 0 14-1.608A12 12 0 0038.392 34C40 31.215 40 27.477 40 20s0-11.215-1.608-14A12 12 0 0034 1.608C31.215 0 27.477 0 20 0S8.785 0 6 1.608A12 12 0 001.608 6zm5.455 17.378l.826-.826a3.194 3.194 0 01.249-.268c3.546-3.544 7.077-7.076 10.594-10.596.05-.051.044-.094-.02-.127-.4-.215-.793-.424-1.179-.629a.89.89 0 01-.266-.188c-.184-.231.304-.623.304-.623.085.002.206.047.363.136.232.132.464.263.697.392.22.121.327.228.328.472 0 .023.008.044.022.062l.094.12c.012.015.025.016.038.002 1.251-1.246 2.501-2.494 3.75-3.743.222-.223.408-.369.558-.438.404-.186.829-.163 1.276.07l.43.223h.001c.772.399 1.457.752 2.125 1.215a13.303 13.303 0 014.069 4.472c.321.573.602 1.106.842 1.6.199.407.212.798.04 1.171-.074.158-.236.362-.487.614l-3.702 3.702c-.014.014-.015.03-.004.046.076.103.166.122.26.142.117.024.239.05.343.24.147.266.296.53.446.792a.907.907 0 01.113.262c.057.36-.388.594-.655.338a.913.913 0 01-.148-.224c-.201-.384-.414-.784-.638-1.201a.058.058 0 00-.043-.03.057.057 0 00-.05.016 9581.77 9581.77 0 00-10.578 10.574c-.11.11-.212.205-.304.282l-1.153 1.153c-3.367.17-9.279-6.398-8.54-9.203zM23.464 7.875c.265-.265.59-.27.91-.113.726.356 1.436.74 2.132 1.153.197.117.33.296.199.507-.118.189-.296.153-.482.116l-.041-.008-2.78-.537c-.283-.054-.564-.164-.51-.514a.109.109 0 01.007-.023.095.095 0 01.02-.031l.545-.55zm8.073 7.035c.145.292.195.583-.033.846a8.07 8.07 0 01-.628.648.086.086 0 01-.054.023c-.332.021-.43-.175-.488-.475a917.678 917.678 0 01-.59-3.026c-.051-.27.253-.448.475-.32a.384.384 0 01.098.086.945.945 0 01.088.127c.404.683.781 1.38 1.132 2.09zm-6.555 6.084l-.738.358c-.018.01-.034.01-.046.004a.057.057 0 01-.024-.03 10.477 10.477 0 00-.963-1.73c-1.302-1.9-3.123-3.538-5.247-4.469a.016.016 0 01-.002-.001.023.023 0 01-.009-.01l-.001-.005v-.004l.001-.009c.519-1.065 1.04-2.131 1.564-3.198a.722.722 0 01.074-.121.466.466 0 01.122-.114c.349-.217.586-.097.947.087l.09.045c.757.38 1.31.678 1.659.894 1.859 1.149 3.315 2.64 4.368 4.474.135.235.409.754.822 1.557.203.397.285.84-.192 1.081-.8.404-1.61.796-2.425 1.191zM15.161 17.7c-.918.883-2 1.373-3.204 1.728h-.01a.018.018 0 01-.01-.018c-.001-.004 0-.007.003-.01l6.504-6.504.005-.003.005-.001c.003 0 .007 0 .01.002a.016.016 0 01.005.005l.001.004a.015.015 0 010 .01l-.064.151-.118.284c-.258.624-.53 1.282-.83 1.774a7.668 7.668 0 01-1.065 1.354c-.404.414-.815.822-1.232 1.224zm11.065 3.219l.161-.066a.017.017 0 01.011 0 .017.017 0 01.009.007l.002.005v.006a.017.017 0 01-.004.01l-6.498 6.5a.019.019 0 01-.022.002l-.004-.005a.02.02 0 01-.004-.017c.117-.347.242-.696.375-1.046a6.367 6.367 0 011.36-2.163c.328-.342.773-.788 1.336-1.339.978-.958 2.087-1.41 3.278-1.894zm-8.655 8.107a21.292 21.292 0 01-1.967-1.049 12.509 12.509 0 01-4.302-4.31c-.207-.347-.5-.895-.88-1.645l-.023-.046c-.168-.331-.27-.532-.116-.86.077-.166.182-.216.36-.302l.066-.032c1.004-.493 2.013-.987 3.025-1.482a.048.048 0 01.052.008c.004.005.008.01.01.015 1.219 2.725 3.515 4.964 6.213 6.214l.003.002.004.002a.022.022 0 01.004.008v.003l.001.005c0 .002 0 .005-.002.007-.49.995-.977 1.993-1.461 2.993-.107.22-.21.367-.31.439-.195.14-.42.15-.677.03z"/></g><defs><radialGradient id="bpaint0_radial_207_2" cx="0" cy="0" r="1" gradientUnits="userSpaceOnUse" gradientTransform="matrix(0 37.5 -37.5 0 20 2.5)"><stop stop-color="#A66CFF"/><stop offset="1" stop-color="#7645EF"/></radialGradient></defs></svg><svg viewBox="0 0 16 12" id="galka" xmlns="http://www.w3.org/2000/svg"><path d="M5.595 12L0 6.312 1.399 4.89l4.196 4.266L14.601 0 16 1.422 5.595 12z"/></svg><svg viewBox="0 0 187 40" id="logo" xmlns="http://www.w3.org/2000/svg"><g clip-path="url(#dclip0_56_1511)"><path fill-rule="evenodd" clip-rule="evenodd" d="M1.608 6C0 8.785 0 12.523 0 20s0 11.215 1.608 14A12 12 0 006 38.392C8.785 40 12.523 40 20 40s11.215 0 14-1.608A12 12 0 0038.392 34C40 31.215 40 27.477 40 20s0-11.215-1.608-14A12 12 0 0034 1.608C31.215 0 27.477 0 20 0S8.785 0 6 1.608A12 12 0 001.608 6zm5.455 17.378l.826-.826a3.194 3.194 0 01.249-.268c3.546-3.544 7.077-7.076 10.594-10.596.05-.051.044-.094-.02-.127-.4-.215-.793-.424-1.179-.629a.89.89 0 01-.266-.188c-.184-.231.304-.623.304-.623.085.002.206.047.363.136.232.132.464.263.697.392.22.121.327.228.328.472 0 .023.008.044.022.062l.094.12c.012.015.025.016.038.002 1.251-1.246 2.501-2.494 3.75-3.743.222-.223.408-.369.558-.438.404-.186.829-.163 1.276.07l.43.223h.001c.772.399 1.457.752 2.125 1.215a13.303 13.303 0 014.069 4.472c.321.573.602 1.106.842 1.6.199.407.212.798.04 1.171-.074.158-.236.362-.487.614l-3.702 3.702c-.014.014-.015.03-.004.046.076.103.166.122.26.142.117.024.239.05.343.24.147.266.296.53.446.792a.907.907 0 01.113.262c.057.36-.388.594-.655.338a.913.913 0 01-.148-.224c-.201-.384-.414-.784-.638-1.201a.058.058 0 00-.043-.03.057.057 0 00-.05.016 9581.77 9581.77 0 00-10.578 10.574c-.11.11-.212.205-.304.282l-1.153 1.153c-3.367.17-9.279-6.398-8.54-9.203zM23.464 7.875c.265-.265.59-.27.91-.113.726.356 1.436.74 2.132 1.153.197.117.33.296.199.507-.118.189-.296.153-.482.116l-.041-.008-2.78-.537c-.283-.054-.564-.164-.51-.514a.109.109 0 01.007-.023.095.095 0 01.02-.031l.545-.55zm8.073 7.035c.145.292.195.583-.033.846a8.07 8.07 0 01-.628.648.086.086 0 01-.054.023c-.332.021-.43-.175-.488-.475a917.678 917.678 0 01-.59-3.026c-.051-.27.253-.448.475-.32a.384.384 0 01.098.086.945.945 0 01.088.127c.404.683.781 1.38 1.132 2.09zm-6.555 6.084l-.738.358c-.018.01-.034.01-.046.004a.057.057 0 01-.024-.03 10.477 10.477 0 00-.963-1.73c-1.302-1.9-3.123-3.538-5.247-4.469a.016.016 0 01-.002-.001.023.023 0 01-.009-.01l-.001-.005v-.004l.001-.009c.519-1.065 1.04-2.131 1.564-3.198a.722.722 0 01.074-.121.466.466 0 01.122-.114c.349-.217.586-.097.947.087l.09.045c.757.38 1.31.678 1.659.894 1.859 1.149 3.315 2.64 4.368 4.474.135.235.409.754.822 1.557.203.397.285.84-.192 1.081-.8.404-1.61.796-2.425 1.191zM15.161 17.7c-.918.883-2 1.373-3.204 1.728h-.01a.018.018 0 01-.01-.018c-.001-.004 0-.007.003-.01l6.504-6.504.005-.003.005-.001c.003 0 .007 0 .01.002a.016.016 0 01.005.005l.001.004a.015.015 0 010 .01l-.064.151-.118.284c-.258.624-.53 1.282-.83 1.774a7.668 7.668 0 01-1.065 1.354c-.404.414-.815.822-1.232 1.224zm11.065 3.219l.161-.066a.017.017 0 01.011 0 .017.017 0 01.009.007l.002.005v.006a.017.017 0 01-.004.01l-6.498 6.5a.019.019 0 01-.022.002l-.004-.005a.02.02 0 01-.004-.017c.117-.347.242-.696.375-1.046a6.367 6.367 0 011.36-2.163c.328-.342.773-.788 1.336-1.339.978-.958 2.087-1.41 3.278-1.894zm-8.655 8.107a21.292 21.292 0 01-1.967-1.049 12.509 12.509 0 01-4.302-4.31c-.207-.347-.5-.895-.88-1.645l-.023-.046c-.168-.331-.27-.532-.116-.86.077-.166.182-.216.36-.302l.066-.032c1.004-.493 2.013-.987 3.025-1.482a.048.048 0 01.052.008c.004.005.008.01.01.015 1.219 2.725 3.515 4.964 6.213 6.214l.003.002.004.002a.022.022 0 01.004.008v.003l.001.005c0 .002 0 .005-.002.007-.49.995-.977 1.993-1.461 2.993-.107.22-.21.367-.31.439-.195.14-.42.15-.677.03z"/></g><path d="M61.215 22.174h2.945c-.203 1.381-.81 2.49-1.824 3.326-1 .835-2.28 1.253-3.838 1.253-2.04 0-3.635-.64-4.788-1.919-1.14-1.291-1.71-2.995-1.71-5.11 0-2.116.576-3.813 1.729-5.092 1.153-1.293 2.742-1.938 4.769-1.938 1.482 0 2.717.386 3.705 1.158.988.76 1.596 1.774 1.824 3.04h-2.964c-.317-1.114-1.172-1.671-2.565-1.671-1.165 0-2.058.424-2.679 1.273-.608.835-.912 1.912-.912 3.23 0 1.317.304 2.4.912 3.248.62.836 1.514 1.255 2.679 1.255.722 0 1.317-.178 1.786-.532.481-.368.792-.875.931-1.52zM65.344 26.506v-9.765h3.534l1.976 4.104h.494l1.976-4.104h3.515v9.765h-2.584v-6.232h-.494l-1.558 3.154H69.98l-1.558-3.154h-.494v6.232h-2.584zM83.013 16.494c1.545 0 2.773.468 3.685 1.405.913.938 1.369 2.18 1.369 3.724 0 1.546-.456 2.787-1.368 3.724-.912.938-2.141 1.406-3.686 1.406-1.533 0-2.762-.468-3.687-1.405-.911-.95-1.367-2.192-1.367-3.724 0-1.533.456-2.768 1.367-3.705.925-.95 2.154-1.425 3.687-1.425zm0 8.055c.797 0 1.393-.272 1.785-.816.406-.558.608-1.26.608-2.11 0-.835-.202-1.526-.608-2.07-.392-.558-.987-.837-1.785-.837-.786 0-1.381.28-1.787.836-.405.545-.608 1.236-.608 2.072 0 .848.203 1.551.609 2.109.405.544 1 .816 1.785.816zM88.167 18.963V16.74h9.063v2.224h-3.192v7.543h-2.66v-7.544h-3.21zM103.008 18.716c-.785 0-1.38.28-1.786.836-.392.545-.589 1.236-.589 2.072 0 .835.197 1.532.589 2.09.406.557 1.001.835 1.786.835.76 0 1.337-.272 1.729-.816.406-.545.608-1.248.608-2.11 0-.848-.202-1.545-.608-2.09-.392-.544-.969-.817-1.729-.817zm-4.94-1.976h2.565v.894h.494c.608-.76 1.52-1.14 2.736-1.14 1.267 0 2.274.48 3.021 1.444.748.95 1.121 2.178 1.121 3.686 0 1.52-.373 2.755-1.121 3.704-.747.95-1.754 1.425-3.021 1.425-1.19 0-2.071-.38-2.641-1.14h-.494v4.694h-2.66V16.74zM111.703 26.506h-2.584v-9.765h2.584v5.51h.456l3.781-5.51h2.622v9.765h-2.584v-5.49h-.456l-3.819 5.49zM120.225 26.506v-9.765h3.534l1.976 4.104h.494l1.976-4.104h3.515v9.765h-2.584v-6.232h-.494l-1.558 3.154h-2.223l-1.558-3.154h-.494v6.232h-2.584zM137.894 16.494c1.545 0 2.774.468 3.686 1.405.912.938 1.368 2.18 1.368 3.724 0 1.546-.456 2.787-1.368 3.724-.912.938-2.141 1.406-3.686 1.406-1.533 0-2.762-.468-3.686-1.405-.912-.95-1.368-2.192-1.368-3.724 0-1.533.456-2.768 1.368-3.705.924-.95 2.153-1.425 3.686-1.425zm0 8.055c.798 0 1.393-.272 1.786-.816.405-.558.608-1.26.608-2.11 0-.835-.203-1.526-.608-2.07-.393-.558-.988-.837-1.786-.837-.786 0-1.381.28-1.786.836-.406.545-.608 1.236-.608 2.072 0 .848.202 1.551.608 2.109.405.544 1 .816 1.786.816zM149.029 17.064c1.393 0 2.514.456 3.363 1.367.861.9 1.292 2.059 1.292 3.477 0 1.42-.469 2.584-1.406 3.496-.925.9-2.141 1.35-3.648 1.35-1.621 0-2.882-.514-3.781-1.54-.887-1.025-1.33-2.52-1.33-4.483 0-4.206 1.286-6.511 3.857-6.917l2.508-.399c.38-.063.633-.139.76-.227.127-.102.203-.267.228-.495h2.147c0 .697-.133 1.28-.399 1.748-.266.47-.792.773-1.577.912l-3.211.514c-.684.1-1.203.348-1.558.74-.355.393-.602.989-.741 1.787h.494c.621-.887 1.621-1.33 3.002-1.33zm-2.223 6.706c.418.52 1.02.78 1.805.78.785 0 1.381-.26 1.786-.78.405-.519.608-1.165.608-1.938 0-.772-.203-1.412-.608-1.919-.405-.506-1.001-.76-1.786-.76-.798 0-1.4.254-1.805.76-.405.507-.608 1.147-.608 1.92 0 .772.203 1.418.608 1.938zM157.389 26.506h-2.584v-9.765h2.584v5.51h.456l3.781-5.51h2.622v9.765h-2.584v-5.49h-.456l-3.819 5.49zM164.923 26.506V23.96h.342c.633 0 1.089-.221 1.368-.665.279-.456.418-1.273.418-2.45V16.74h8.341v9.765h-2.66v-7.543h-3.23v1.976c0 2.04-.336 3.477-1.007 4.314-.671.835-1.748 1.253-3.23 1.253h-.342zM179.733 16.74v2.85h2.394c1.254 0 2.216.305 2.888.913.684.595 1.026 1.43 1.026 2.508 0 1.089-.342 1.944-1.026 2.565-.672.62-1.634.93-2.888.93h-5.054v-9.765h2.66zm0 7.563h2.014c.608 0 1.032-.108 1.273-.323.24-.229.361-.558.361-.989 0-.443-.121-.772-.361-.988-.241-.215-.665-.323-1.273-.323h-2.014v2.622z"/><defs><radialGradient id="dpaint0_radial_56_1511" cx="0" cy="0" r="1" gradientUnits="userSpaceOnUse" gradientTransform="matrix(0 37.5 -37.5 0 20 2.5)"><stop stop-color="#A66CFF"/><stop offset="1" stop-color="#7645EF"/></radialGradient><clipPath id="dclip0_56_1511"><path d="M0 0h40v40H0z"/></clipPath></defs></svg></svg>