<svg width="40" height="40" viewBox="0 0 40 40" fill="none" xmlns="http://www.w3.org/2000/svg">
<mask id="mask0_207_2" style="mask-type:luminance" maskUnits="userSpaceOnUse" x="0" y="0" width="40" height="40">
<path d="M40 0H0V40H40V0Z" fill="white"/>
</mask>
<g mask="url(#mask0_207_2)">
<path fill-rule="evenodd" clip-rule="evenodd" d="M1.60769 6C0 8.78461 0 12.5231 0 20C0 27.4769 0 31.2154 1.60769 34C2.66091 35.8242 4.17577 37.3391 6 38.3923C8.78461 40 12.5231 40 20 40C27.4769 40 31.2154 40 34 38.3923C35.8242 37.3391 37.3391 35.8242 38.3923 34C40 31.2154 40 27.4769 40 20C40 12.5231 40 8.78461 38.3923 6C37.3391 4.17577 35.8242 2.66091 34 1.60769C31.2154 0 27.4769 0 20 0C12.5231 0 8.78461 0 6 1.60769C4.17577 2.66091 2.66091 4.17577 1.60769 6ZM7.06306 23.3782L7.88923 22.5519C7.92537 22.5085 7.9637 22.4652 8.00422 22.4216C8.04646 22.376 8.09089 22.3301 8.13753 22.2837C11.6842 18.7399 15.2154 15.208 18.7315 11.688C18.7818 11.637 18.7755 11.5945 18.712 11.5607C18.3123 11.346 17.9195 11.1366 17.5333 10.9324C17.399 10.8612 17.3101 10.7984 17.2667 10.744C17.0831 10.5127 17.5706 10.1212 17.5706 10.1212C17.6561 10.1225 17.7774 10.1678 17.9344 10.2571C18.1661 10.3891 18.3985 10.5198 18.6314 10.649C18.8502 10.7702 18.9578 10.8771 18.9593 11.1212C18.9598 11.1441 18.9669 11.1648 18.9813 11.1831L19.0753 11.3031C19.0872 11.318 19.0997 11.3187 19.1131 11.3054C20.3643 10.0589 21.6143 8.81093 22.8629 7.56179C23.0848 7.33916 23.2711 7.19317 23.4212 7.12377C23.8245 6.93794 24.2496 6.96133 24.6969 7.19417L25.1268 7.41672L25.1283 7.4175C25.8999 7.81566 26.585 8.16918 27.2528 8.63196C28.9442 9.80163 30.3153 11.3075 31.3219 13.1035C31.6431 13.677 31.9241 14.2104 32.1644 14.7036C32.3629 15.1112 32.3758 15.5018 32.2032 15.8752C32.1304 16.0326 31.9681 16.237 31.7166 16.4886L28.0152 20.1909C28.0011 20.2051 27.9996 20.2203 28.0113 20.2366C28.0867 20.34 28.1773 20.359 28.2713 20.3788C28.388 20.4034 28.5098 20.4291 28.6143 20.6188C28.7613 20.8846 28.9097 21.1487 29.0596 21.411C29.1253 21.5264 29.1629 21.6137 29.1727 21.6726C29.2301 22.0327 28.7852 22.267 28.5177 22.0106C28.4761 21.9711 28.4271 21.8966 28.3697 21.7872C28.169 21.4034 27.9564 21.0029 27.732 20.5859C27.7276 20.5779 27.7215 20.5709 27.7139 20.5657C27.7064 20.5604 27.6978 20.557 27.6888 20.5556C27.68 20.5542 27.6707 20.5549 27.6622 20.5577C27.6536 20.5606 27.6458 20.5654 27.6395 20.5718C24.1178 24.0865 20.5916 27.6112 17.0611 31.1457C16.9505 31.2566 16.8492 31.3507 16.7567 31.4284L15.6036 32.5815C12.2371 32.7504 6.32527 26.1834 7.06306 23.3782ZM23.4644 7.87546C23.7291 7.60986 24.0533 7.60445 24.3748 7.76247C25.0999 8.11844 25.8104 8.50258 26.5062 8.91485C26.7034 9.03203 26.8363 9.211 26.7047 9.42198C26.5865 9.61092 26.4085 9.57543 26.2225 9.53833L26.1817 9.53024C25.2552 9.35043 24.3284 9.17146 23.4014 8.99341C23.119 8.9387 22.8382 8.82921 22.8919 8.47942C22.8934 8.47108 22.8956 8.46319 22.8988 8.45572C22.9034 8.4445 22.9102 8.43427 22.9193 8.42502C23.1019 8.24011 23.2835 8.05695 23.4644 7.87546ZM31.5367 14.9096C31.6815 15.2022 31.7323 15.493 31.5042 15.7561C31.3072 15.9834 31.0975 16.1993 30.8756 16.4039C30.8604 16.4178 30.8426 16.4255 30.8219 16.4269C30.4901 16.448 30.3929 16.2516 30.3338 15.9517C30.1358 14.9433 29.9395 13.9347 29.7449 12.9257C29.6929 12.6555 29.9967 12.4784 30.2191 12.6052C30.2513 12.6237 30.284 12.6527 30.3175 12.6924C30.3463 12.7267 30.3756 12.7689 30.4053 12.8192C30.8092 13.5017 31.1864 14.1986 31.5367 14.9096ZM24.982 20.9945L24.244 21.3524C24.2257 21.3616 24.2103 21.3628 24.1978 21.3562C24.1881 21.3511 24.18 21.3412 24.1737 21.3266C23.9119 20.7279 23.5909 20.1512 23.2105 19.5965C21.9093 17.6969 20.0882 16.0576 17.9644 15.1275C17.9634 15.1271 17.9624 15.1265 17.9615 15.1259C17.9599 15.125 17.9586 15.1239 17.9573 15.1225C17.9552 15.1204 17.9537 15.118 17.9525 15.1152L17.9517 15.1113L17.9512 15.1067C17.9512 15.1038 17.952 15.1009 17.9534 15.0983C18.4718 14.0331 18.993 12.9669 19.5169 11.8997C19.5394 11.8541 19.564 11.8138 19.5909 11.7788C19.6275 11.7311 19.6683 11.6932 19.713 11.6653C20.0616 11.4476 20.2991 11.5683 20.6602 11.7519L20.7503 11.7974C21.5069 12.1773 22.0599 12.4751 22.4088 12.6908C24.2679 13.8397 25.724 15.3312 26.7772 17.1652C26.9119 17.4002 27.1856 17.9191 27.5985 18.722C27.8023 19.119 27.8844 19.5627 27.4068 19.8035C26.6073 20.207 25.7979 20.5992 24.982 20.9945ZM15.1605 17.6998C14.243 18.5832 13.1615 19.0727 11.9571 19.4282C11.9534 19.4291 11.9498 19.4288 11.9464 19.4274C11.9429 19.426 11.94 19.4235 11.9381 19.4203C11.9361 19.4172 11.9354 19.4134 11.9356 19.4098C11.9359 19.406 11.9376 19.4026 11.94 19.3999L18.4439 12.896L18.4486 12.8929L18.4537 12.8916C18.4573 12.8913 18.461 12.8922 18.4642 12.8942C18.4661 12.8955 18.4677 12.8973 18.4689 12.8993C18.4695 12.9003 18.4699 12.9015 18.4703 12.9027C18.4713 12.9061 18.471 12.9097 18.4696 12.913L18.4063 13.064L18.2884 13.3477L18.2879 13.3489C18.03 13.9723 17.7577 14.6305 17.4581 15.122C17.1741 15.5876 16.8192 16.039 16.3931 16.4761C15.9888 16.8902 15.578 17.2982 15.1605 17.6998ZM26.2264 20.9185L26.387 20.8531C26.3907 20.8518 26.3946 20.8519 26.3983 20.8531C26.4017 20.8544 26.4049 20.8568 26.4068 20.86L26.4093 20.8651L26.4097 20.8707C26.4095 20.8745 26.4078 20.8781 26.4053 20.8809L19.9073 27.3801C19.9041 27.3827 19.9005 27.3843 19.8966 27.3846C19.8927 27.3849 19.8885 27.384 19.8851 27.3818L19.8812 27.3785C19.8797 27.3769 19.8785 27.375 19.8778 27.3729C19.8763 27.3692 19.8761 27.3651 19.877 27.3613C19.9937 27.0141 20.1185 26.6654 20.2515 26.3151C20.565 25.4923 21.0186 24.7712 21.6124 24.1517C21.9403 23.81 22.3851 23.3638 22.9476 22.8131C23.9258 21.855 25.0351 21.4034 26.2264 20.9185ZM17.5706 29.0258C16.8966 28.7106 16.241 28.361 15.6036 27.9771C13.8258 26.9053 12.3739 25.4507 11.3023 23.6662C11.0948 23.3201 10.8016 22.7721 10.4224 22.0221L10.3995 21.9763C10.2308 21.6448 10.1285 21.4437 10.2828 21.1155C10.3604 20.9504 10.4654 20.8998 10.6429 20.8142L10.7088 20.7823C11.7132 20.2889 12.7215 19.795 13.7337 19.3005C13.7391 19.2978 13.7452 19.2962 13.7515 19.2959C13.7576 19.2956 13.764 19.2965 13.7698 19.2986C13.7757 19.3008 13.7811 19.304 13.7857 19.3083C13.7901 19.3125 13.7938 19.3177 13.7965 19.3234C15.015 22.048 17.3114 24.2869 20.0089 25.5368L20.0123 25.5388L20.0157 25.5415C20.0174 25.5435 20.0189 25.5459 20.0198 25.5485L20.0208 25.5524L20.0211 25.5565C20.0208 25.5592 20.0203 25.5619 20.0191 25.5643C19.5296 26.5592 19.0423 27.557 18.5577 28.5574C18.451 28.7776 18.3477 28.9238 18.2476 28.9959C18.0535 29.1358 17.828 29.1458 17.5706 29.0258Z" fill="url(#paint0_radial_207_2)"/>
</g>
<defs>
<radialGradient id="paint0_radial_207_2" cx="0" cy="0" r="1" gradientUnits="userSpaceOnUse" gradientTransform="translate(20 2.49997) rotate(90) scale(37.5)">
<stop stop-color="#A66CFF"/>
<stop offset="1" stop-color="#7645EF"/>
</radialGradient>
</defs>
</svg>
