<svg width="187" height="40" viewBox="0 0 187 40" fill="none" xmlns="http://www.w3.org/2000/svg">
<g clip-path="url(#clip0_56_1511)">
<path fill-rule="evenodd" clip-rule="evenodd" d="M1.60769 6C0 8.78461 0 12.5231 0 20C0 27.4769 0 31.2154 1.60769 34C2.66091 35.8242 4.17577 37.3391 6 38.3923C8.78461 40 12.5231 40 20 40C27.4769 40 31.2154 40 34 38.3923C35.8242 37.3391 37.3391 35.8242 38.3923 34C40 31.2154 40 27.4769 40 20C40 12.5231 40 8.78461 38.3923 6C37.3391 4.17577 35.8242 2.66091 34 1.60769C31.2154 0 27.4769 0 20 0C12.5231 0 8.78461 0 6 1.60769C4.17577 2.66091 2.66091 4.17577 1.60769 6ZM7.06306 23.3782L7.88923 22.5519C7.92537 22.5085 7.9637 22.4652 8.00422 22.4216C8.04646 22.376 8.09089 22.3301 8.13753 22.2837C11.6842 18.7399 15.2154 15.208 18.7315 11.688C18.7818 11.637 18.7755 11.5945 18.712 11.5607C18.3123 11.346 17.9195 11.1366 17.5333 10.9324C17.399 10.8612 17.3101 10.7984 17.2667 10.744C17.0831 10.5127 17.5706 10.1212 17.5706 10.1212C17.6561 10.1225 17.7774 10.1678 17.9344 10.2571C18.1661 10.3891 18.3985 10.5198 18.6314 10.649C18.8502 10.7702 18.9578 10.8771 18.9593 11.1212C18.9598 11.1441 18.9669 11.1648 18.9813 11.1831L19.0753 11.3031C19.0872 11.318 19.0997 11.3187 19.1131 11.3054C20.3643 10.0589 21.6143 8.81093 22.8629 7.56179C23.0848 7.33916 23.2711 7.19317 23.4212 7.12377C23.8245 6.93794 24.2496 6.96133 24.6969 7.19417L25.1268 7.41672L25.1283 7.4175C25.8999 7.81566 26.585 8.16918 27.2528 8.63196C28.9442 9.80163 30.3153 11.3075 31.3219 13.1035C31.6431 13.677 31.9241 14.2104 32.1644 14.7036C32.3629 15.1112 32.3758 15.5018 32.2032 15.8752C32.1304 16.0326 31.9681 16.237 31.7166 16.4886L28.0152 20.1909C28.0011 20.2051 27.9996 20.2203 28.0113 20.2366C28.0867 20.34 28.1773 20.359 28.2713 20.3788L28.2713 20.3788C28.388 20.4034 28.5098 20.4291 28.6143 20.6188C28.7613 20.8846 28.9097 21.1487 29.0596 21.411C29.1253 21.5264 29.1629 21.6137 29.1727 21.6726C29.2301 22.0327 28.7852 22.267 28.5177 22.0106C28.4761 21.9711 28.4271 21.8966 28.3697 21.7872C28.169 21.4034 27.9564 21.0029 27.732 20.5859C27.7276 20.5779 27.7215 20.5709 27.7139 20.5657C27.7064 20.5604 27.6978 20.557 27.6888 20.5556C27.68 20.5542 27.6707 20.5549 27.6622 20.5577C27.6536 20.5606 27.6458 20.5654 27.6395 20.5718C24.1178 24.0865 20.5916 27.6112 17.0611 31.1457C16.9505 31.2566 16.8492 31.3507 16.7567 31.4284L15.6036 32.5815C12.2371 32.7504 6.32527 26.1834 7.06306 23.3782ZM23.4644 7.87546C23.7291 7.60986 24.0533 7.60445 24.3748 7.76247C25.0999 8.11844 25.8104 8.50258 26.5062 8.91485C26.7034 9.03203 26.8363 9.211 26.7047 9.42198C26.5865 9.61092 26.4085 9.57543 26.2225 9.53833L26.2225 9.53832L26.1817 9.53024C25.2552 9.35043 24.3284 9.17146 23.4014 8.99341C23.119 8.9387 22.8382 8.82921 22.8919 8.47942C22.8934 8.47108 22.8956 8.46319 22.8988 8.45572C22.9034 8.4445 22.9102 8.43427 22.9193 8.42502C23.1019 8.24011 23.2835 8.05695 23.4644 7.87546ZM31.5367 14.9096C31.6815 15.2022 31.7323 15.493 31.5042 15.7561C31.3072 15.9834 31.0975 16.1993 30.8756 16.4039C30.8604 16.4178 30.8426 16.4255 30.8219 16.4269C30.4901 16.448 30.3929 16.2516 30.3338 15.9517C30.1358 14.9433 29.9395 13.9347 29.7449 12.9257C29.6929 12.6555 29.9967 12.4784 30.2191 12.6052C30.2513 12.6237 30.284 12.6527 30.3175 12.6924C30.3463 12.7267 30.3756 12.7689 30.4053 12.8192C30.8092 13.5017 31.1864 14.1986 31.5367 14.9096ZM24.982 20.9945L24.244 21.3524C24.2257 21.3616 24.2103 21.3628 24.1978 21.3562C24.1881 21.3511 24.18 21.3412 24.1737 21.3266C23.9119 20.7279 23.5909 20.1512 23.2105 19.5965C21.9093 17.6969 20.0882 16.0576 17.9644 15.1275C17.9634 15.1271 17.9624 15.1265 17.9615 15.1259C17.9599 15.125 17.9586 15.1239 17.9573 15.1225C17.9552 15.1204 17.9537 15.118 17.9525 15.1152L17.9517 15.1113L17.9512 15.1067C17.9512 15.1038 17.952 15.1009 17.9534 15.0983C18.4718 14.0331 18.993 12.9669 19.5169 11.8997C19.5394 11.8541 19.564 11.8138 19.5909 11.7788C19.6275 11.7311 19.6683 11.6932 19.713 11.6653C20.0616 11.4476 20.2991 11.5683 20.6602 11.7519L20.7503 11.7974C21.5069 12.1773 22.0599 12.4751 22.4088 12.6908C24.2679 13.8397 25.724 15.3312 26.7772 17.1652C26.9119 17.4002 27.1856 17.9191 27.5985 18.722C27.8023 19.119 27.8844 19.5627 27.4068 19.8035C26.6073 20.207 25.7979 20.5992 24.982 20.9945ZM15.1605 17.6998C14.243 18.5832 13.1615 19.0727 11.9571 19.4282C11.9534 19.4291 11.9498 19.4288 11.9464 19.4274C11.9429 19.426 11.94 19.4235 11.9381 19.4203C11.9361 19.4172 11.9354 19.4134 11.9356 19.4098C11.9359 19.406 11.9376 19.4026 11.94 19.3999L18.4439 12.896L18.4486 12.8929L18.4537 12.8916C18.4573 12.8913 18.461 12.8922 18.4642 12.8942C18.4661 12.8955 18.4677 12.8973 18.4689 12.8993C18.4695 12.9003 18.4699 12.9015 18.4703 12.9027C18.4713 12.9061 18.471 12.9097 18.4696 12.913L18.4063 13.064L18.2884 13.3477L18.2879 13.3489C18.03 13.9723 17.7577 14.6305 17.4581 15.122C17.1741 15.5876 16.8192 16.039 16.3931 16.4761C15.9888 16.8902 15.578 17.2982 15.1605 17.6998ZM26.2264 20.9185L26.387 20.8531C26.3907 20.8518 26.3946 20.8519 26.3983 20.8531C26.4017 20.8544 26.4049 20.8568 26.4068 20.86L26.4093 20.8651L26.4097 20.8707C26.4095 20.8745 26.4078 20.8781 26.4053 20.8809L19.9073 27.3801C19.9041 27.3827 19.9005 27.3843 19.8966 27.3846C19.8927 27.3849 19.8885 27.384 19.8851 27.3818L19.8812 27.3785C19.8797 27.3769 19.8785 27.375 19.8778 27.3729C19.8763 27.3692 19.8761 27.3651 19.877 27.3613C19.9937 27.0141 20.1185 26.6654 20.2515 26.3151C20.565 25.4923 21.0186 24.7712 21.6124 24.1517C21.9403 23.81 22.3851 23.3638 22.9476 22.8131C23.9258 21.855 25.0349 21.4035 26.2262 20.9186L26.2264 20.9185ZM17.5706 29.0258C16.8966 28.7106 16.241 28.361 15.6036 27.9771C13.8258 26.9053 12.3739 25.4507 11.3023 23.6662C11.0948 23.3201 10.8016 22.7721 10.4224 22.0221L10.3995 21.9763C10.2308 21.6448 10.1285 21.4437 10.2828 21.1155C10.3604 20.9504 10.4654 20.8998 10.6429 20.8142L10.7088 20.7823C11.7132 20.2889 12.7215 19.795 13.7337 19.3005C13.7391 19.2978 13.7452 19.2962 13.7515 19.2959C13.7576 19.2956 13.764 19.2965 13.7698 19.2986C13.7757 19.3008 13.7811 19.304 13.7857 19.3083C13.7901 19.3125 13.7938 19.3177 13.7965 19.3234C15.015 22.048 17.3114 24.2869 20.0089 25.5368L20.0123 25.5388L20.0157 25.5415C20.0174 25.5435 20.0189 25.5459 20.0198 25.5485L20.0208 25.5524L20.0211 25.5565C20.0208 25.5592 20.0203 25.5619 20.0191 25.5643C19.5296 26.5592 19.0423 27.557 18.5577 28.5574C18.451 28.7776 18.3477 28.9238 18.2476 28.9959C18.0535 29.1358 17.828 29.1458 17.5706 29.0258Z" fill="url(#paint0_radial_56_1511)"/>
</g>
<path d="M61.215 22.1745H64.16C63.9573 23.5552 63.3493 24.6635 62.336 25.4995C61.3353 26.3355 60.056 26.7535 58.498 26.7535C56.4587 26.7535 54.8627 26.1138 53.71 24.8345C52.57 23.5425 52 21.8388 52 19.7235C52 17.6082 52.5763 15.9108 53.729 14.6315C54.8817 13.3395 56.4713 12.6935 58.498 12.6935C59.98 12.6935 61.215 13.0798 62.203 13.8525C63.191 14.6125 63.799 15.6258 64.027 16.8925H61.063C60.7463 15.7778 59.8913 15.2205 58.498 15.2205C57.3327 15.2205 56.4397 15.6448 55.819 16.4935C55.211 17.3295 54.907 18.4062 54.907 19.7235C54.907 21.0408 55.211 22.1238 55.819 22.9725C56.4397 23.8085 57.3327 24.2265 58.498 24.2265C59.22 24.2265 59.8153 24.0492 60.284 23.6945C60.7653 23.3272 61.0757 22.8205 61.215 22.1745Z" fill="white"/>
<path d="M65.3438 26.5065V16.7405H68.8778L70.8538 20.8445H71.3478L73.3238 16.7405H76.8388V26.5065H74.2548V20.2745H73.7608L72.2028 23.4285H69.9798L68.4218 20.2745H67.9278V26.5065H65.3438Z" fill="white"/>
<path d="M83.0125 16.4935C84.5578 16.4935 85.7865 16.9622 86.6985 17.8995C87.6105 18.8368 88.0665 20.0782 88.0665 21.6235C88.0665 23.1688 87.6105 24.4102 86.6985 25.3475C85.7865 26.2848 84.5578 26.7535 83.0125 26.7535C81.4798 26.7535 80.2511 26.2848 79.3265 25.3475C78.4145 24.3975 77.9585 23.1562 77.9585 21.6235C77.9585 20.0908 78.4145 18.8558 79.3265 17.9185C80.2511 16.9685 81.4798 16.4935 83.0125 16.4935ZM83.0125 24.5495C83.8105 24.5495 84.4058 24.2772 84.7985 23.7325C85.2038 23.1752 85.4065 22.4722 85.4065 21.6235C85.4065 20.7875 85.2038 20.0972 84.7985 19.5525C84.4058 18.9952 83.8105 18.7165 83.0125 18.7165C82.2271 18.7165 81.6318 18.9952 81.2265 19.5525C80.8211 20.0972 80.6185 20.7875 80.6185 21.6235C80.6185 22.4722 80.8211 23.1752 81.2265 23.7325C81.6318 24.2772 82.2271 24.5495 83.0125 24.5495Z" fill="white"/>
<path d="M88.1672 18.9635V16.7405H97.2302V18.9635H94.0382V26.5065H91.3782V18.9635H88.1672Z" fill="white"/>
<path d="M103.008 18.7165C102.223 18.7165 101.628 18.9952 101.222 19.5525C100.83 20.0972 100.633 20.7875 100.633 21.6235C100.633 22.4595 100.83 23.1562 101.222 23.7135C101.628 24.2708 102.223 24.5495 103.008 24.5495C103.768 24.5495 104.345 24.2772 104.737 23.7325C105.143 23.1878 105.345 22.4848 105.345 21.6235C105.345 20.7748 105.143 20.0782 104.737 19.5335C104.345 18.9888 103.768 18.7165 103.008 18.7165ZM98.0683 16.7405H100.633V17.6335H101.127C101.735 16.8735 102.647 16.4935 103.863 16.4935C105.13 16.4935 106.137 16.9748 106.884 17.9375C107.632 18.8875 108.005 20.1162 108.005 21.6235C108.005 23.1435 107.632 24.3785 106.884 25.3285C106.137 26.2785 105.13 26.7535 103.863 26.7535C102.673 26.7535 101.792 26.3735 101.222 25.6135H100.728V30.3065H98.0683V16.7405Z" fill="white"/>
<path d="M111.703 26.5065H109.119V16.7405H111.703V22.2505H112.159L115.94 16.7405H118.562V26.5065H115.978V21.0155H115.522L111.703 26.5065Z" fill="white"/>
<path d="M120.225 26.5065V16.7405H123.759L125.735 20.8445H126.229L128.205 16.7405H131.72V26.5065H129.136V20.2745H128.642L127.084 23.4285H124.861L123.303 20.2745H122.809V26.5065H120.225Z" fill="white"/>
<path d="M137.894 16.4935C139.439 16.4935 140.668 16.9622 141.58 17.8995C142.492 18.8368 142.948 20.0782 142.948 21.6235C142.948 23.1688 142.492 24.4102 141.58 25.3475C140.668 26.2848 139.439 26.7535 137.894 26.7535C136.361 26.7535 135.132 26.2848 134.208 25.3475C133.296 24.3975 132.84 23.1562 132.84 21.6235C132.84 20.0908 133.296 18.8558 134.208 17.9185C135.132 16.9685 136.361 16.4935 137.894 16.4935ZM137.894 24.5495C138.692 24.5495 139.287 24.2772 139.68 23.7325C140.085 23.1752 140.288 22.4722 140.288 21.6235C140.288 20.7875 140.085 20.0972 139.68 19.5525C139.287 18.9952 138.692 18.7165 137.894 18.7165C137.108 18.7165 136.513 18.9952 136.108 19.5525C135.702 20.0972 135.5 20.7875 135.5 21.6235C135.5 22.4722 135.702 23.1752 136.108 23.7325C136.513 24.2772 137.108 24.5495 137.894 24.5495Z" fill="white"/>
<path d="M149.029 17.0635C150.422 17.0635 151.543 17.5195 152.392 18.4315C153.253 19.3308 153.684 20.4898 153.684 21.9085C153.684 23.3272 153.215 24.4925 152.278 25.4045C151.353 26.3038 150.137 26.7535 148.63 26.7535C147.009 26.7535 145.748 26.2405 144.849 25.2145C143.962 24.1885 143.519 22.6938 143.519 20.7305C143.519 16.5252 144.805 14.2198 147.376 13.8145L149.884 13.4155C150.264 13.3522 150.517 13.2762 150.644 13.1875C150.771 13.0862 150.847 12.9215 150.872 12.6935H153.019C153.019 13.3902 152.886 13.9728 152.62 14.4415C152.354 14.9102 151.828 15.2142 151.043 15.3535L147.832 15.8665C147.148 15.9678 146.629 16.2148 146.274 16.6075C145.919 17.0002 145.672 17.5955 145.533 18.3935H146.027C146.648 17.5068 147.648 17.0635 149.029 17.0635ZM146.806 23.7705C147.224 24.2898 147.826 24.5495 148.611 24.5495C149.396 24.5495 149.992 24.2898 150.397 23.7705C150.802 23.2512 151.005 22.6052 151.005 21.8325C151.005 21.0598 150.802 20.4202 150.397 19.9135C149.992 19.4068 149.396 19.1535 148.611 19.1535C147.813 19.1535 147.211 19.4068 146.806 19.9135C146.401 20.4202 146.198 21.0598 146.198 21.8325C146.198 22.6052 146.401 23.2512 146.806 23.7705Z" fill="white"/>
<path d="M157.389 26.5065H154.805V16.7405H157.389V22.2505H157.845L161.626 16.7405H164.248V26.5065H161.664V21.0155H161.208L157.389 26.5065Z" fill="white"/>
<path d="M164.923 26.5065V23.9605H165.265C165.898 23.9605 166.354 23.7388 166.633 23.2955C166.912 22.8395 167.051 22.0225 167.051 20.8445V16.7405H175.392V26.5065H172.732V18.9635H169.502V20.9395C169.502 22.9788 169.166 24.4165 168.495 25.2525C167.824 26.0885 166.747 26.5065 165.265 26.5065H164.923Z" fill="white"/>
<path d="M179.733 16.7405V19.5905H182.127C183.381 19.5905 184.343 19.8945 185.015 20.5025C185.699 21.0978 186.041 21.9338 186.041 23.0105C186.041 24.0998 185.699 24.9548 185.015 25.5755C184.343 26.1962 183.381 26.5065 182.127 26.5065H177.073V16.7405H179.733ZM179.733 24.3025H181.747C182.355 24.3025 182.779 24.1948 183.02 23.9795C183.26 23.7515 183.381 23.4222 183.381 22.9915C183.381 22.5482 183.26 22.2188 183.02 22.0035C182.779 21.7882 182.355 21.6805 181.747 21.6805H179.733V24.3025Z" fill="white"/>
<defs>
<radialGradient id="paint0_radial_56_1511" cx="0" cy="0" r="1" gradientUnits="userSpaceOnUse" gradientTransform="translate(20 2.49997) rotate(90) scale(37.5)">
<stop stop-color="#A66CFF"/>
<stop offset="1" stop-color="#7645EF"/>
</radialGradient>
<clipPath id="clip0_56_1511">
<rect width="40" height="40" fill="white"/>
</clipPath>
</defs>
</svg>
